{"title":"Badlapur 2015 Hindi NONRETAIL DVD RIP GOPI SAHI PDR","uid":11714345,"size":732428890,"categoryP":"video","categoryS":"movies","magnet":"?xt=urn:btih:806a2a5394209941fd085d25bfabcbe19c5d0f85&amp;dn=Badlapur+2015+Hindi+NONRETAIL+DVD+RIP+GOPI+SAHI+PDR&amp;tr=udp%3A%2F%2Ftracker.openbittorrent.com%3A80&amp;tr=udp%3A%2F%2Fopen.demonii.com%3A1337&amp;tr=udp%3A%2F%2Ftracker.coppersurfer.tk%3A6969&amp;tr=udp%3A%2F%2Fexodus.desync.com%3A6969","seeders":3,"leechers":0,"uploader":"jatt13","files":1,"time":1424486921,"description":"File size                      : 698 MiB\nDuration                       : 2h 13mn\nOverall bit rate               : 731 Kbps\n\nVideo\nID                             : 1\nFormat                         : AVC\nDuration                       : 2h 13mn\nBit rate                       : 670 Kbps\nWidth                          : 640 pixels\nHeight                         : 288 pixels\nDisplay aspect ratio           : 2.222\nFrame rate mode                : Constant\nFrame rate                     : 25.000 fps\nStream size                    : 623 MiB (89%)\nColor range                    : Limited\n\nAudio\nID                             : 2\nCodec ID/Hint                  : MP3\nDuration                       : 2h 13mn\nBit rate mode                  : Constant\nBit rate                       : 64.0 Kbps\nChannel(s)                     : 1 channel\nSampling rate                  : 48.0 KHz\nStream size                    : 61.1 MiB (9%)\n[img]http://i.imgur.com/I7f0fg1.jpg[/img]\n[img]http://i.imgur.com/f3SlGiH.jpg[/img]\n[img]http://i.imgur.com/ETu3Plb.jpg[/img]\n[img]http://i.imgur.com/qafRnH3.jpg[/img]\n[img]http://i.imgur.com/8duX8Yg.jpg[/img]","torrent":{"xt":"urn:btih:806a2a5394209941fd085d25bfabcbe19c5d0f85","amp;dn":"Badlapur+2015+Hindi+NONRETAIL+DVD+RIP+GOPI+SAHI+PDR","amp;tr":["udp%3A%2F%2Ftracker.openbittorrent.com%3A80","udp%3A%2F%2Fopen.demonii.com%3A1337","udp%3A%2F%2Ftracker.coppersurfer.tk%3A6969","udp%3A%2F%2Fexodus.desync.com%3A6969"],"infoHash":"806a2a5394209941fd085d25bfabcbe19c5d0f85","infoHashBuffer":{"type":"Buffer","data":[128,106,42,83,148,32,153,65,253,8,93,37,191,171,203,225,156,93,15,133]},"announce":[],"urlList":[]}}